<mxfile host="app.diagrams.net" modified="2024-05-16T05:34:07.417Z" agent="Mozilla/5.0 (Windows NT 10.0; Win64; x64) AppleWebKit/537.36 (KHTML, like Gecko) Chrome/124.0.0.0 Safari/537.36" version="24.4.2" etag="NCYFiJ7qeauvJV8ycpnp" type="github">
  <diagram name="Page-1" id="3LOXsPYoVE_o06Cp-WKX">
    <mxGraphModel>
      <root>
        <mxCell id="0" />
        <mxCell id="1" parent="0" />
        <mxCell id="2" value="User" style="shape=umlLifeline;perimeter=lifelinePerimeter;whiteSpace=wrap;container=1;dropTarget=0;collapsible=0;recursiveResize=0;outlineConnect=0;portConstraint=eastwest;newEdgeStyle={&quot;edgeStyle&quot;:&quot;elbowEdgeStyle&quot;,&quot;elbow&quot;:&quot;vertical&quot;,&quot;curved&quot;:0,&quot;rounded&quot;:0};size=65;" vertex="1" parent="1">
          <mxGeometry width="150" height="934" as="geometry" />
        </mxCell>
        <mxCell id="3" value="Developer" style="shape=umlLifeline;perimeter=lifelinePerimeter;whiteSpace=wrap;container=1;dropTarget=0;collapsible=0;recursiveResize=0;outlineConnect=0;portConstraint=eastwest;newEdgeStyle={&quot;edgeStyle&quot;:&quot;elbowEdgeStyle&quot;,&quot;elbow&quot;:&quot;vertical&quot;,&quot;curved&quot;:0,&quot;rounded&quot;:0};size=65;" vertex="1" parent="1">
          <mxGeometry x="211" width="150" height="934" as="geometry" />
        </mxCell>
        <mxCell id="4" value="QA" style="shape=umlLifeline;perimeter=lifelinePerimeter;whiteSpace=wrap;container=1;dropTarget=0;collapsible=0;recursiveResize=0;outlineConnect=0;portConstraint=eastwest;newEdgeStyle={&quot;edgeStyle&quot;:&quot;elbowEdgeStyle&quot;,&quot;elbow&quot;:&quot;vertical&quot;,&quot;curved&quot;:0,&quot;rounded&quot;:0};size=65;" vertex="1" parent="1">
          <mxGeometry x="411" width="150" height="934" as="geometry" />
        </mxCell>
        <mxCell id="5" value="DevOps" style="shape=umlLifeline;perimeter=lifelinePerimeter;whiteSpace=wrap;container=1;dropTarget=0;collapsible=0;recursiveResize=0;outlineConnect=0;portConstraint=eastwest;newEdgeStyle={&quot;edgeStyle&quot;:&quot;elbowEdgeStyle&quot;,&quot;elbow&quot;:&quot;vertical&quot;,&quot;curved&quot;:0,&quot;rounded&quot;:0};size=65;" vertex="1" parent="1">
          <mxGeometry x="611" width="150" height="934" as="geometry" />
        </mxCell>
        <mxCell id="6" value="Submit requirement" style="verticalAlign=bottom;endArrow=block;edgeStyle=elbowEdgeStyle;elbow=vertical;curved=0;rounded=0;" edge="1" parent="1" source="2" target="3">
          <mxGeometry relative="1" as="geometry">
            <Array as="points">
              <mxPoint x="191" y="107" />
            </Array>
          </mxGeometry>
        </mxCell>
        <mxCell id="7" value="Analyze requirement" style="curved=1;" edge="1" parent="1" source="3" target="3">
          <mxGeometry relative="1" as="geometry">
            <Array as="points">
              <mxPoint x="336" y="159" />
              <mxPoint x="336" y="189" />
            </Array>
          </mxGeometry>
        </mxCell>
        <mxCell id="8" value="Design UI/UX" style="curved=1;" edge="1" parent="1" source="3" target="3">
          <mxGeometry relative="1" as="geometry">
            <Array as="points">
              <mxPoint x="336" y="241" />
              <mxPoint x="336" y="271" />
            </Array>
          </mxGeometry>
        </mxCell>
        <mxCell id="9" value="Implement frontend" style="curved=1;" edge="1" parent="1" source="3" target="3">
          <mxGeometry relative="1" as="geometry">
            <Array as="points">
              <mxPoint x="336" y="323" />
              <mxPoint x="336" y="353" />
            </Array>
          </mxGeometry>
        </mxCell>
        <mxCell id="10" value="Conduct testing" style="verticalAlign=bottom;endArrow=block;edgeStyle=elbowEdgeStyle;elbow=vertical;curved=0;rounded=0;" edge="1" parent="1" source="3" target="4">
          <mxGeometry relative="1" as="geometry">
            <Array as="points">
              <mxPoint x="396" y="405" />
            </Array>
          </mxGeometry>
        </mxCell>
        <mxCell id="11" value="Provide feedback" style="verticalAlign=bottom;endArrow=block;edgeStyle=elbowEdgeStyle;elbow=vertical;curved=0;rounded=0;" edge="1" parent="1" source="4" target="3">
          <mxGeometry relative="1" as="geometry">
            <Array as="points">
              <mxPoint x="396" y="457" />
            </Array>
          </mxGeometry>
        </mxCell>
        <mxCell id="12" value="Make necessary changes" style="curved=1;" edge="1" parent="1" source="3" target="3">
          <mxGeometry relative="1" as="geometry">
            <Array as="points">
              <mxPoint x="336" y="509" />
              <mxPoint x="336" y="539" />
            </Array>
          </mxGeometry>
        </mxCell>
        <mxCell id="13" value="Deploy to staging" style="verticalAlign=bottom;endArrow=block;edgeStyle=elbowEdgeStyle;elbow=vertical;curved=0;rounded=0;" edge="1" parent="1" source="3" target="5">
          <mxGeometry relative="1" as="geometry">
            <Array as="points">
              <mxPoint x="496" y="591" />
            </Array>
          </mxGeometry>
        </mxCell>
        <mxCell id="14" value="Verify deployment" style="verticalAlign=bottom;endArrow=block;edgeStyle=elbowEdgeStyle;elbow=vertical;curved=0;rounded=0;" edge="1" parent="1" source="5" target="4">
          <mxGeometry relative="1" as="geometry">
            <Array as="points">
              <mxPoint x="596" y="643" />
            </Array>
          </mxGeometry>
        </mxCell>
        <mxCell id="15" value="Approve for production" style="verticalAlign=bottom;endArrow=block;edgeStyle=elbowEdgeStyle;elbow=vertical;curved=0;rounded=0;" edge="1" parent="1" source="4" target="2">
          <mxGeometry relative="1" as="geometry">
            <Array as="points">
              <mxPoint x="291" y="695" />
            </Array>
          </mxGeometry>
        </mxCell>
        <mxCell id="16" value="Deploy to production" style="curved=1;" edge="1" parent="1" source="5" target="5">
          <mxGeometry relative="1" as="geometry">
            <Array as="points">
              <mxPoint x="736" y="747" />
              <mxPoint x="736" y="777" />
            </Array>
          </mxGeometry>
        </mxCell>
        <mxCell id="17" value="Frontend delivered to production" style="verticalAlign=bottom;endArrow=block;edgeStyle=elbowEdgeStyle;elbow=vertical;curved=0;rounded=0;" edge="1" parent="1" source="5" target="2">
          <mxGeometry relative="1" as="geometry">
            <Array as="points">
              <mxPoint x="391" y="829" />
            </Array>
          </mxGeometry>
        </mxCell>
      </root>
    </mxGraphModel>
  </diagram>
</mxfile>
